:FULLY-SPECIFIED
:FORCE-ALL-JOINTS-BE-3DOF
:DEGREES
408
root 4.43943 16.2444 -11.3549 4.22563 -33.2479 -5.01486
lfemur -30.3422 4.68492 -6.33415
ltibia 44.4671 0 0
lfoot -11.5698 12.344 0
ltoes -0.769922 0 0
rfemur -31.6119 -13.6341 21.514
rtibia 65.809 0 0
rfoot 2.09685 -1.1825 0
rtoes 22.56 0 0
lowerback 5.07305 3.82235 1.70369
upperback 1.75862 5.15121 -1.14299
thorax -0.778636 2.57588 -2.39156
lowerneck -6.32087 2.07951 7.45238
upperneck 3.72043 2.12289 0.218613
head 2.42587 1.17208 -1.14171
lclavicle -3.06128e-14 4.46792e-15 0
lhumerus -44.2021 -19.7312 94.483
lradius 50.4891 0 0
lwrist 16.8215 0 0
lhand -17.22 2.80397 0
lfingers 7.12502 0 0
lthumb 9.02223 32.5691 0
rclavicle -3.06128e-14 4.46792e-15 0
rhumerus -45.2491 9.1088 -91.3594
rradius 63.2591 0 0
rwrist 9.63783 0 0
rhand -21.8259 -18.6826 0
rfingers 7.12502 0 0
rthumb 4.5756 -768.541 0
409
root 4.37862 16.2241 -11.2573 4.10099 -33.2548 -4.99714
lfemur -30.1212 5.03044 -6.28563
ltibia 45.1326 0 0
lfoot -12.211 12.0064 0
ltoes -0.948757 0 0
rfemur -32.4653 -13.2113 20.7596
rtibia 65.1989 0 0
rfoot 2.33842 -1.12343 0
rtoes 21.8086 0 0
lowerback 5.202 3.75778 1.7551
upperback 1.77849 5.06902 -1.15501
thorax -0.828956 2.53428 -2.43674
lowerneck -6.33275 2.24197 7.58517
upperneck 3.7535 2.33881 -0.00608429
head 2.45712 1.276 -1.22949
lclavicle -3.24019e-14 6.81547e-15 0
lhumerus -44.1837 -19.7771 94.5506
lradius 50.3297 0 0
lwrist 16.5937 0 0
lhand -17.5224 2.58832 0
lfingers 7.12502 0 0
lthumb 8.7304 32.365 0
rclavicle -3.24019e-14 6.81547e-15 0
rhumerus -45.3124 8.82409 -91.1542
rradius 63.6849 0 0
rwrist 9.81146 0 0
rhand -22.3871 -18.7886 0
rfingers 7.12502 0 0
rthumb 4.03374 -768.655 0
410
root 4.3178 16.2037 -11.1598 3.97635 -33.2617 -4.97943
lfemur -29.9002 5.37595 -6.23711
ltibia 45.798 0 0
lfoot -12.8521 11.6688 0
ltoes -1.12759 0 0
rfemur -33.3187 -12.7886 20.0052
rtibia 64.5888 0 0
rfoot 2.57999 -1.06437 0
rtoes 21.0571 0 0
lowerback 5.33095 3.69321 1.80651
upperback 1.79836 4.98683 -1.16703
thorax -0.879276 2.49268 -2.48193
lowerneck -6.34462 2.40443 7.71796
upperneck 3.78656 2.55474 -0.230781
head 2.48837 1.37992 -1.31727
lclavicle -3.41909e-14 9.16302e-15 0
lhumerus -44.1654 -19.823 94.6182
lradius 50.1702 0 0
lwrist 16.3659 0 0
lhand -17.8248 2.37267 0
lfingers 7.12502 0 0
lthumb 8.43856 32.1609 0
rclavicle -3.41909e-14 9.16302e-15 0
rhumerus -45.3757 8.53938 -90.949
rradius 64.1106 0 0
rwrist 9.98509 0 0
rhand -22.9482 -18.8946 0
rfingers 7.12502 0 0
rthumb 3.49189 -768.769 0
411
root 4.25699 16.1833 -11.0623 3.85171 -33.2687 -4.96171
lfemur -29.6791 5.72147 -6.18858
ltibia 46.4635 0 0
lfoot -13.4932 11.3311 0
ltoes -1.30643 0 0
rfemur -34.172 -12.3659 19.2508
rtibia 63.9787 0 0
rfoot 2.82155 -1.00531 0
rtoes 20.3057 0 0
lowerback 5.4599 3.62864 1.85793
upperback 1.81824 4.90463 -1.17906
thorax -0.929597 2.45109 -2.52711
lowerneck -6.3565 2.56689 7.85075
upperneck 3.81963 2.77066 -0.455479
head 2.51961 1.48384 -1.40506
lclavicle -3.598e-14 1.15106e-14 0
lhumerus -44.147 -19.8688 94.6859
lradius 50.0108 0 0
lwrist 16.1382 0 0
lhand -18.1272 2.15702 0
lfingers 7.12502 0 0
lthumb 8.14673 31.9568 0
rclavicle -3.598e-14 1.15106e-14 0
rhumerus -45.439 8.25467 -90.7438
rradius 64.5363 0 0
rwrist 10.1587 0 0
rhand -23.5094 -19.0005 0
rfingers 7.12502 0 0
rthumb 2.95003 -768.884 0
412
root 4.19617 16.1629 -10.9648 3.72707 -33.2756 -4.944
lfemur -29.4581 6.06698 -6.14006
ltibia 47.1289 0 0
lfoot -14.1343 10.9935 0
ltoes -1.48526 0 0
rfemur -35.0254 -11.9432 18.4964
rtibia 63.3686 0 0
rfoot 3.06312 -0.946253 0
rtoes 19.5542 0 0
lowerback 5.58885 3.56407 1.90934
upperback 1.83811 4.82244 -1.19108
thorax -0.979917 2.40949 -2.5723
lowerneck -6.36837 2.72935 7.98354
upperneck 3.85269 2.98658 -0.680176
head 2.55086 1.58776 -1.49284
lclavicle -3.7769e-14 1.38581e-14 0
lhumerus -44.1287 -19.9147 94.7535
lradius 49.8513 0 0
lwrist 15.9104 0 0
lhand -18.4296 1.94136 0
lfingers 7.12502 0 0
lthumb 7.85489 31.7527 0
rclavicle -3.7769e-14 1.38581e-14 0
rhumerus -45.5023 7.96996 -90.5386
rradius 64.962 0 0
rwrist 10.3323 0 0
rhand -24.0705 -19.1065 0
rfingers 7.12502 0 0
rthumb 2.40818 -768.998 0
413
root 4.13536 16.1426 -10.8672 3.60243 -33.2825 -4.92628
lfemur -29.2371 6.4125 -6.09154
ltibia 47.7944 0 0
lfoot -14.7754 10.6559 0
ltoes -1.6641 0 0
rfemur -35.8788 -11.5204 17.742
rtibia 62.7585 0 0
rfoot 3.30469 -0.887193 0
rtoes 18.8028 0 0
lowerback 5.7178 3.4995 1.96075
upperback 1.85798 4.74025 -1.2031
thorax -1.03024 2.36789 -2.61748
lowerneck -6.38025 2.89182 8.11633
upperneck 3.88576 3.2025 -0.904873
head 2.58211 1.69168 -1.58062
lclavicle -3.95581e-14 1.62057e-14 0
lhumerus -44.1103 -19.9606 94.8211
lradius 49.6919 0 0
lwrist 15.6826 0 0
lhand -18.732 1.72571 0
lfingers 7.12502 0 0
lthumb 7.56306 31.5486 0
rclavicle -3.95581e-14 1.62057e-14 0
rhumerus -45.5656 7.68525 -90.3334
rradius 65.3878 0 0
rwrist 10.506 0 0
rhand -24.6317 -19.2125 0
rfingers 7.12502 0 0
rthumb 1.86632 -769.112 0
414
root 4.07454 16.1222 -10.7697 3.47778 -33.2894 -4.90857
lfemur -29.0161 6.75801 -6.04302
ltibia 48.4598 0 0
lfoot -15.4165 10.3183 0
ltoes -1.84293 0 0
rfemur -36.7321 -11.0977 16.9875
rtibia 62.1484 0 0
rfoot 3.54626 -0.828132 0
rtoes 18.0513 0 0
lowerback 5.84675 3.43493 2.01216
upperback 1.87786 4.65806 -1.21513
thorax -1.08056 2.32629 -2.66267
lowerneck -6.39213 3.05428 8.24911
upperneck 3.91883 3.41843 -1.12957
head 2.61336 1.79561 -1.6684
lclavicle -4.13472e-14 1.85532e-14 0
lhumerus -44.0919 -20.0065 94.8887
lradius 49.5325 0 0
lwrist 15.4549 0 0
lhand -19.0344 1.51006 0
lfingers 7.12502 0 0
lthumb 7.27123 31.3446 0
rclavicle -4.13472e-14 1.85532e-14 0
rhumerus -45.6289 7.40053 -90.1282
rradius 65.8135 0 0
rwrist 10.6796 0 0
rhand -25.1928 -19.3185 0
rfingers 7.12502 0 0
rthumb 1.32447 -769.226 0
415
root 4.01372 16.1018 -10.6722 3.35314 -33.2963 -4.89086
lfemur -28.7951 7.10353 -5.99449
ltibia 49.1252 0 0
lfoot -16.0576 9.98064 0
ltoes -2.02177 0 0
rfemur -37.5855 -10.675 16.2331
rtibia 61.5383 0 0
rfoot 3.78782 -0.769071 0
rtoes 17.2999 0 0
lowerback 5.9757 3.37036 2.06357
upperback 1.89773 4.57587 -1.22715
thorax -1.13088 2.28469 -2.70785
lowerneck -6.404 3.21674 8.3819
upperneck 3.95189 3.63435 -1.35427
head 2.64461 1.89953 -1.75618
lclavicle -4.31362e-14 2.09008e-14 0
lhumerus -44.0736 -20.0524 94.9564
lradius 49.373 0 0
lwrist 15.2271 0 0
lhand -19.3368 1.29441 0
lfingers 7.12502 0 0
lthumb 6.97939 31.1405 0
rclavicle -4.31362e-14 2.09008e-14 0
rhumerus -45.6922 7.11582 -89.923
rradius 66.2392 0 0
rwrist 10.8532 0 0
rhand -25.754 -19.4245 0
rfingers 7.12502 0 0
rthumb 0.782611 -769.341 0
416
root 3.95291 16.0815 -10.5746 3.2285 -33.3032 -4.87314
lfemur -28.5741 7.44904 -5.94597
ltibia 49.7907 0 0
lfoot -16.6987 9.64302 0
ltoes -2.2006 0 0
rfemur -38.4389 -10.2523 15.4787
rtibia 60.9282 0 0
rfoot 4.02939 -0.710011 0
rtoes 16.5484 0 0
lowerback 6.10466 3.3058 2.11498
upperback 1.9176 4.49368 -1.23917
thorax -1.1812 2.24309 -2.75304
lowerneck -6.41588 3.3792 8.51469
upperneck 3.98496 3.85027 -1.57896
head 2.67586 2.00345 -1.84396
lclavicle -4.49253e-14 2.32483e-14 0
lhumerus -44.0552 -20.0983 95.024
lradius 49.2136 0 0
lwrist 14.9993 0 0
lhand -19.6392 1.07876 0
lfingers 7.12502 0 0
lthumb 6.68756 30.9364 0
rclavicle -4.49253e-14 2.32483e-14 0
rhumerus -45.7555 6.83111 -89.7178
rradius 66.665 0 0
rwrist 11.0269 0 0
rhand -26.3151 -19.5305 0
rfingers 7.12502 0 0
rthumb 0.240756 -769.455 0
417
root 3.89209 16.0611 -10.4771 3.10386 -33.3101 -4.85543
lfemur -28.3531 7.79456 -5.89745
ltibia 50.4561 0 0
lfoot -17.3399 9.3054 0
ltoes -2.37944 0 0
rfemur -39.2922 -9.82952 14.7243
rtibia 60.3181 0 0
rfoot 4.27096 -0.65095 0
rtoes 15.797 0 0
lowerback 6.23361 3.24123 2.16639
upperback 1.93748 4.41149 -1.2512
thorax -1.23152 2.20149 -2.79822
lowerneck -6.42776 3.54166 8.64748
upperneck 4.01803 4.06619 -1.80366
head 2.70711 2.10737 -1.93174
lclavicle -4.67144e-14 2.55959e-14 0
lhumerus -44.0368 -20.1442 95.0916
lradius 49.0542 0 0
lwrist 14.7716 0 0
lhand -19.9416 0.863108 0
lfingers 7.12502 0 0
lthumb 6.39573 30.7323 0
rclavicle -4.67144e-14 2.55959e-14 0
rhumerus -45.8188 6.5464 -89.5126
rradius 67.0907 0 0
rwrist 11.2005 0 0
rhand -26.8763 -19.6365 0
rfingers 7.12502 0 0
rthumb -0.301099 -769.569 0
418
root 3.83128 16.0407 -10.3796 2.97922 -33.3171 -4.83771
lfemur -28.132 8.14007 -5.84893
ltibia 51.1216 0 0
lfoot -17.981 8.96777 0
ltoes -2.55827 0 0
rfemur -40.1456 -9.40679 13.9699
rtibia 59.708 0 0
rfoot 4.51253 -0.59189 0
rtoes 15.0455 0 0
lowerback 6.36256 3.17666 2.2178
upperback 1.95735 4.3293 -1.26322
thorax -1.28184 2.1599 -2.84341
lowerneck -6.43963 3.70412 8.78027
upperneck 4.05109 4.28211 -2.02836
head 2.73836 2.21129 -2.01953
lclavicle -4.85034e-14 2.79434e-14 0
lhumerus -44.0185 -20.1901 95.1592
lradius 48.8947 0 0
lwrist 14.5438 0 0
lhand -20.244 0.647456 0
lfingers 7.12502 0 0
lthumb 6.10389 30.5282 0
rclavicle -4.85034e-14 2.79434e-14 0
rhumerus -45.8821 6.26169 -89.3074
rradius 67.5164 0 0
rwrist 11.3741 0 0
rhand -27.4374 -19.7424 0
rfingers 7.12502 0 0
rthumb -0.842954 -769.683 0
419
root 3.77046 16.0203 -10.2821 2.85457 -33.324 -4.82
lfemur -27.911 8.48559 -5.8004
ltibia 51.787 0 0
lfoot -18.6221 8.63015 0
ltoes -2.73711 0 0
rfemur -40.999 -8.98407 13.2154
rtibia 59.0979 0 0
rfoot 4.75409 -0.532829 0
rtoes 14.2941 0 0
lowerback 6.49151 3.11209 2.26921
upperback 1.97722 4.24711 -1.27524
thorax -1.33216 2.1183 -2.88859
lowerneck -6.45151 3.86659 8.91305
upperneck 4.08416 4.49804 -2.25306
head 2.76961 2.31522 -2.10731
lclavicle -5.02925e-14 3.0291e-14 0
lhumerus -44.0001 -20.236 95.2269
lradius 48.7353 0 0
lwrist 14.316 0 0
lhand -20.5464 0.431805 0
lfingers 7.12502 0 0
lthumb 5.81206 30.3242 0
rclavicle -5.02925e-14 3.0291e-14 0
rhumerus -45.9454 5.97697 -89.1022
rradius 67.9421 0 0
rwrist 11.5477 0 0
rhand -27.9986 -19.8484 0
rfingers 7.12502 0 0
rthumb -1.38481 -769.798 0
